<?xml version="1.0" encoding="UTF-8"?>
<svg id="Layer_1" xmlns="http://www.w3.org/2000/svg" viewBox="0 0 841.89 595.28">
  <defs>
    <style>
      .cls-1 {
        fill: #fff;
      }
    </style>
  </defs>
  <path class="cls-1" d="M341.09,361.33c.92-.46,1.8-1.2,2.78-1.35,10.84-1.65,21.49-3.84,31.39-8.91,21.61-11.08,40.67-44.27,26.01-74.47-9.49-19.56-30.53-28.17-50.98-20.81-8.33,3-14.55,8.75-18.3,16.37-5.91,11.99-11.08,24.36-16.03,36.78-4.46,11.22-9.03,22.29-15.38,32.64-9.12,14.87-22.31,21.49-39.49,21.32-22.17-.21-39.94-11.92-48.55-32.34-.28-.66-.65-1.29-1.31-2.58-.8,1.27-1.32,2.12-1.86,2.97-3.61,5.71-6.84,11.72-10.91,17.08-8.43,11.11-20.36,14.78-33.82,14.86-28.29.18-50.3-19.67-53.53-47.86-2.09-18.3.26-35.83,7.55-52.68,3.01-6.97,7.29-13.14,13.4-17.83,11.35-8.7,23.57-9.39,36.55-4.04,7.02,2.89,14.14,5.59,21.36,7.93,2.78.9,5.96.57,8.96.8.08.32.15.64.23.97-1.04.25-2.11.82-3.11.71-8.43-.97-16.88-1.84-25.26-3.15-25.63-4-50.77,12.99-56.8,38.46-3.11,13.13-3.59,26.07,2.25,38.63,6.8,14.6,21.05,22.38,37.2,21.5,13.87-.76,24.3-6.36,30.81-18.76,1.66-3.16,3.37-6.31,4.68-9.61,6-15.07,11.58-30.31,17.91-45.23,2.66-6.28,6.39-12.22,10.32-17.83,8.29-11.84,20.22-17.18,34.45-17.75,23.21-.93,39.81,9.59,50.99,29.48.54.96,1.05,1.94,1.59,2.9.05.1.2.14.74.52,1.06-1.85,2.14-3.66,3.15-5.51,6.75-12.25,15.42-22.38,29.73-25.81,26.06-6.24,49.57,4.41,62.14,28.14,7.65,14.44,9.33,29.9,7.12,45.89-2.58,18.71-10.3,37.3-16.54,49.88-16.13-4.29-32.43-3.43-48.73-.02l-.71-1.27ZM247.93,346.36c16.07.51,28.2-6,34.65-20.86,7.04-16.23,13.31-32.8,19.76-49.29.43-1.1-.07-2.92-.75-4.03-13.24-21.49-37.53-22.09-52.42-14.75-9.12,4.5-14.52,12.59-18.38,21.44-6.15,14.08-11.58,28.47-17.1,42.81-.55,1.43-.06,3.69.73,5.14,7.22,13.23,18.7,19.36,33.51,19.54Z"/>
  <path class="cls-1" d="M552.73,258.74c-.05,1.09-.14,2.18-.14,3.27,0,29.33.01,58.67-.02,88,0,4.91,1.2,9.15,5.98,12.02h-17.43c4.88-2.89,5.83-7.33,5.84-12.12.03-23.54.02-47.08.02-70.62,0-9.61.04-19.23-.02-28.84-.03-5.65-1.44-8.32-5.91-11.35,5.26,0,10.18.11,15.09-.04,2.5-.08,3.06,1.64,3.77,3.32,4.96,11.66,9.91,23.32,14.84,34.98,8.48,20.05,16.94,40.1,25.43,60.15.59,1.4,1.44,2.7,2.65,4.95,2.42-5.48,4.51-10.02,6.45-14.62,9.88-23.33,19.73-46.68,29.59-70.02,2.25-5.33,4.39-10.7,6.89-15.91.59-1.23,2.37-2.61,3.67-2.68,5.52-.3,11.07-.13,17.57-.13-5.87,2.76-7.07,7.21-7.07,12.27,0,32.79,0,65.57-.01,98.36,0,4.91,1.23,9.19,6.11,12.27h-23.41c3.87-2.5,5.71-6,5.71-10.38.02-32.42.02-64.83,0-97.25,0-.47-.15-.95-.79-1.64-8.98,17.73-16.2,36.23-24.17,54.37-8.05,18.33-15.77,36.8-24.09,56.28-15.33-35.68-30.25-70.39-45.16-105.11-.46.16-.93.32-1.39.47Z"/>
  <path class="cls-1" d="M748.48,258.33c-.71-9.8-7.32-13.22-15.53-14.6-7.92-1.33-16-2.25-23.72.64-10.05,3.76-14.4,11.82-14.85,22.13-.41,9.41,4.81,15.59,12.77,19.38,7.98,3.79,16.43,6.61,24.42,10.39,6.28,2.97,12.84,5.95,18.09,10.35,11.68,9.8,12.84,26,6.63,38.03-6.42,12.44-17.87,16.71-30.76,18.8-9.56,1.55-18.56-.7-27.58-3.2-3.88-1.08-7.75-2.23-11.92-3.43v-18.71c1.72,11.77,10,16.75,20.28,19.09,10.61,2.41,20.96,1.73,30.54-4.43,11.99-7.7,18.16-31.27-1.16-41.69-9.26-5-19.28-8.59-29.01-12.7-7.48-3.16-14.35-7.14-19.22-13.83-7.97-10.93-6.5-32.34,10.51-41.76,11.89-6.59,24.41-6.68,37.27-4.03,3.96.82,7.99,1.34,11.94,2.23.86.19,2.09,1.37,2.12,2.13.19,4.99.1,9.99.1,14.99-.31.07-.61.15-.92.22Z"/>
  <path class="cls-1" d="M476.66,240.93c2.7,7.21,5.15,13.71,7.56,20.21,11.1,30,22.12,60.03,33.35,89.98,1.64,4.36,3.22,9.22,8.76,10.82h-23.24c.47.49.94.98,1.41,1.47.75-1.56,1.85-3.05,2.15-4.68.32-1.75.3-3.78-.3-5.43-5.08-13.99-10.37-27.91-15.48-41.88-.75-2.05-1.73-2.89-3.97-2.87-9.24.11-18.49.1-27.74,0-2.05-.02-3.05.64-3.75,2.6-5,14.02-10.17,27.98-15.15,42-1.48,4.16-.45,6.41,3.69,8.8h-17.52c5.2-2.76,7.34-7.45,9.18-12.35,13.02-34.79,26.03-69.59,39.06-104.38.46-1.22,1.09-2.37,1.98-4.3ZM487.79,302.84c-4.8-13.05-9.44-25.66-14.08-38.26-.47,0-.94.01-1.41.02-4.64,12.62-9.28,25.23-14.07,38.24h29.56Z"/>
</svg>