<?xml version="1.0" encoding="UTF-8"?>
<svg id="Layer_1" xmlns="http://www.w3.org/2000/svg" viewBox="0 0 841.89 595.28">
  <defs>
    <style>
      .cls-1 {
        fill: #fff;
      }

      .cls-2 {
        fill: #545859;
      }

      .cls-3 {
        fill: #19395f;
      }
    </style>
  </defs>
  <g>
    <path class="cls-1" d="M662.54,305.46c4.18-6.22,8.24-12.27,12.23-18.2,4.51,2.67,8.88,5.38,13.36,7.9,5.32,2.99,10.89,5.44,16.98,6.43,7.29,1.19,14.47,1.21,21.31-2.11,4.48-2.18,7.94-5.32,9.12-10.38.95-4.06-.18-7.48-3.42-10.17-3-2.48-6.54-3.87-10.25-4.71-7.21-1.63-14.47-3.02-21.71-4.51-6.67-1.37-13.17-3.26-19.2-6.5-7.73-4.16-13.78-10.01-15.95-18.67-4.49-17.93,2.31-34.49,21.19-41.38,8.98-3.28,18.33-3.91,27.82-3.59,14.71.49,27.23,6.45,38.74,15.09.07.05.11.15.24.34-4.13,5.89-8.29,11.82-12.55,17.88-.52-.34-1.02-.65-1.5-.97-6.31-4.18-12.84-7.91-20.26-9.77-7.92-1.98-15.8-2.08-23.39,1.3-2.26,1-4.44,2.49-6.2,4.23-4.01,3.96-3.5,9.89.87,13.41,3.78,3.04,8.3,4.49,12.91,5.59,8.59,2.07,17.27,3.8,25.84,5.97,3.96,1.01,7.88,2.45,11.58,4.18,11.47,5.36,17.5,14.55,18.21,27.16.37,6.57-.34,12.99-3.18,19.04-4.05,8.63-11.09,13.81-19.82,16.97-7.77,2.82-15.85,3.52-24.05,3.46-15.03-.13-28.8-4.2-41.21-12.74-2.5-1.72-5.03-3.42-7.69-5.23Z"/>
    <path class="cls-1" d="M622.67,201.57h23.11c.05.33.14.64.14.95,0,25.65.01,51.31-.06,76.96-.02,6.47-1.3,12.74-3.84,18.71-4.78,11.18-13.12,18.59-24.6,22.25-13.35,4.25-26.88,4.31-40.19-.13-15.25-5.09-24.16-15.98-27.23-31.62-.75-3.83-1.09-7.8-1.11-11.71-.1-24.67-.05-49.34-.05-74.01,0-.42,0-.83,0-1.36h23.32v1.69c0,23.41,0,46.81,0,70.22,0,4,.39,7.94,1.62,11.76,2.96,9.2,10.42,15.07,20.07,15.92,4.64.4,9.19.15,13.57-1.47,8.34-3.07,12.88-9.35,14.46-17.85.56-3.01.77-6.14.77-9.21.06-23.08.03-46.16.03-69.23v-1.86Z"/>
    <path class="cls-1" d="M202.88,201.56h68.96v21.5h-45.84v26.97h41.91v21.57h-41.86v28.01h47.36v21.51h-70.53v-119.56Z"/>
    <path class="cls-1" d="M185.9,221.72c-6.46,4.26-12.78,8.43-19.12,12.62-.93-.97-1.76-1.91-2.67-2.79-7.51-7.24-16.61-10.18-26.89-9.97-19.9.4-32.62,14.15-35.75,31.38-2.23,12.28-.12,23.8,7.27,34.02,6.36,8.8,15.21,13.33,25.98,14.24,6.75.57,13.26-.32,19.48-3.09,4.39-1.95,8.17-4.72,11.39-8.27.31-.35.62-.7.94-1.04.06-.07.16-.1.31-.19,6.29,4.15,12.6,8.32,19.06,12.58-.58.71-1.08,1.37-1.62,1.98-9.83,11.22-22.24,17.67-36.97,19.64-13.15,1.75-25.81.05-37.66-6.11-15.48-8.06-25.43-20.72-29.89-37.48-4.76-17.87-2.99-35.16,6.57-51.18,9.39-15.73,23.51-24.87,41.56-27.72,15.32-2.42,29.85-.02,43.23,8.1,5.7,3.46,10.56,7.87,14.78,13.28Z"/>
    <path class="cls-1" d="M484.28,221.72c-6.47,4.27-12.79,8.44-18.96,12.51-2.18-1.96-4.15-3.99-6.38-5.67-6.9-5.19-14.81-7.16-23.35-6.99-19.74.41-32.63,13.98-35.77,31.52-2.2,12.28-.06,23.8,7.37,34,6.36,8.72,15.18,13.24,25.9,14.11,9.27.76,17.92-1.07,25.53-6.61,2.37-1.72,4.43-3.86,6.73-5.88,6.15,4.06,12.47,8.23,19.13,12.63-2.53,2.56-4.81,5.16-7.39,7.42-9.86,8.67-21.46,13.31-34.49,14.41-14.3,1.2-27.72-1.55-39.8-9.49-13.89-9.13-22.3-22.1-25.6-38.27-3.39-16.61-1.37-32.57,7.43-47.25,9.44-15.76,23.54-24.97,41.64-27.83,15.31-2.42,29.85-.02,43.23,8.1,5.7,3.46,10.56,7.87,14.78,13.28Z"/>
    <path class="cls-1" d="M363.95,299.69v21.41h-69.22v-119.52h23.02v1.98c0,31.41,0,62.82,0,94.24q0,1.89,1.89,1.89c14.15,0,28.3,0,42.45,0h1.86Z"/>
    <path class="cls-1" d="M524.22,321.14h-22.94v-119.56h22.94v119.56Z"/>
    <path class="cls-1" d="M463.51,361.52h8.55v40.32c-2.4,0-4.81.05-7.21-.05-.41-.02-.86-.64-1.19-1.07-5.4-7.07-10.77-14.15-16.16-21.23-.27-.35-.57-.69-1.03-1.26v23.51h-8.55v-40.29c2.38,0,4.8-.05,7.21.05.41.02.86.64,1.19,1.07,5.37,7.03,10.72,14.07,16.08,21.11.28.37.58.72,1.11,1.39v-23.55Z"/>
    <path class="cls-1" d="M388.81,361.44c.93,0,1.81,0,2.69,0,3.98.04,7.97-.1,11.94.15,11.57.71,20.24,11.27,18.79,22.72-1.06,8.43-8.04,15.77-16.69,17.1-3.54.54-7.19.35-10.79.45-1.95.05-3.91,0-5.95,0v-40.43ZM397.41,369.55v24.34c1.69,0,3.3.15,4.86-.03,4.91-.57,8.43-3.2,10.48-7.65,1.97-4.3,1.14-8.32-1.74-11.94-3.49-4.38-8.21-5.38-13.6-4.71Z"/>
    <path class="cls-1" d="M372.26,401.78h-8.4v-40.27h8.4v40.27Z"/>
  </g>
  <g>
    <path class="cls-3" d="M326.84,358.51c.92-.46,1.8-1.2,2.78-1.35,10.84-1.65,21.49-3.84,31.39-8.91,21.61-11.08,40.67-44.27,26.01-74.47-9.49-19.56-30.53-28.17-50.98-20.81-8.33,3-14.55,8.75-18.3,16.37-5.91,11.99-11.08,24.36-16.03,36.78-4.46,11.22-9.03,22.29-15.38,32.64-9.12,14.87-22.31,21.49-39.49,21.32-22.17-.21-39.94-11.92-48.55-32.34-.28-.66-.65-1.29-1.31-2.58-.8,1.27-1.32,2.12-1.86,2.97-3.61,5.71-6.84,11.72-10.91,17.08-8.43,11.11-20.36,14.78-33.82,14.86-28.29.18-50.3-19.67-53.53-47.86-2.09-18.3.26-35.83,7.55-52.68,3.01-6.97,7.29-13.14,13.4-17.83,11.35-8.7,23.57-9.39,36.55-4.04,7.02,2.89,14.14,5.59,21.36,7.93,2.78.9,5.96.57,8.96.8.08.32.15.64.23.97-1.04.25-2.11.82-3.11.71-8.43-.97-16.88-1.84-25.26-3.15-25.63-4-50.77,12.99-56.8,38.46-3.11,13.13-3.59,26.07,2.25,38.63,6.8,14.6,21.05,22.38,37.2,21.5,13.87-.76,24.3-6.36,30.81-18.76,1.66-3.16,3.37-6.31,4.68-9.61,6-15.07,11.58-30.31,17.91-45.23,2.66-6.28,6.39-12.22,10.32-17.83,8.29-11.84,20.22-17.18,34.45-17.75,23.21-.93,39.81,9.59,50.99,29.48.54.96,1.05,1.94,1.59,2.9.05.1.2.14.74.52,1.06-1.85,2.14-3.66,3.15-5.51,6.75-12.25,15.42-22.38,29.73-25.81,26.06-6.24,49.57,4.41,62.14,28.14,7.65,14.44,9.33,29.9,7.12,45.89-2.58,18.71-10.3,37.3-16.54,49.88-16.13-4.29-32.43-3.43-48.73-.02l-.71-1.27ZM233.69,343.54c16.07.51,28.2-6,34.65-20.86,7.04-16.23,13.31-32.8,19.76-49.29.43-1.1-.07-2.92-.75-4.03-13.24-21.49-37.53-22.09-52.42-14.75-9.12,4.5-14.52,12.59-18.38,21.44-6.15,14.08-11.58,28.47-17.1,42.81-.55,1.43-.06,3.69.73,5.14,7.22,13.23,18.7,19.36,33.51,19.54Z"/>
    <path class="cls-2" d="M538.49,255.92c-.05,1.09-.14,2.18-.14,3.27,0,29.33.01,58.67-.02,88,0,4.91,1.2,9.15,5.98,12.02h-17.43c4.88-2.89,5.83-7.33,5.84-12.12.03-23.54.02-47.08.02-70.62,0-9.61.04-19.23-.02-28.84-.03-5.65-1.44-8.32-5.91-11.35,5.26,0,10.18.11,15.09-.04,2.5-.08,3.06,1.64,3.77,3.32,4.96,11.66,9.91,23.32,14.84,34.98,8.48,20.05,16.94,40.1,25.43,60.15.59,1.4,1.44,2.7,2.65,4.95,2.42-5.48,4.51-10.02,6.45-14.62,9.88-23.33,19.73-46.68,29.59-70.02,2.25-5.33,4.39-10.7,6.89-15.91.59-1.23,2.37-2.61,3.67-2.68,5.52-.3,11.07-.13,17.57-.13-5.87,2.76-7.07,7.21-7.07,12.27,0,32.79,0,65.57-.01,98.36,0,4.91,1.23,9.19,6.11,12.27h-23.41c3.87-2.5,5.71-6,5.71-10.38.02-32.42.02-64.83,0-97.25,0-.47-.15-.95-.79-1.64-8.98,17.73-16.2,36.23-24.17,54.37-8.05,18.33-15.77,36.8-24.09,56.28-15.33-35.68-30.25-70.39-45.16-105.11-.46.16-.93.32-1.39.47Z"/>
    <path class="cls-2" d="M734.23,255.51c-.71-9.8-7.32-13.22-15.53-14.6-7.92-1.33-16-2.25-23.72.64-10.05,3.76-14.4,11.82-14.85,22.13-.41,9.41,4.81,15.59,12.77,19.38,7.98,3.79,16.43,6.61,24.42,10.39,6.28,2.97,12.84,5.95,18.09,10.35,11.68,9.8,12.84,26,6.63,38.03-6.42,12.44-17.87,16.71-30.76,18.8-9.56,1.55-18.56-.7-27.58-3.2-3.88-1.08-7.75-2.23-11.92-3.43v-18.71c1.72,11.77,10,16.75,20.28,19.09,10.61,2.41,20.96,1.73,30.54-4.43,11.99-7.7,18.16-31.27-1.16-41.69-9.26-5-19.28-8.59-29.01-12.7-7.48-3.16-14.35-7.14-19.22-13.83-7.97-10.93-6.5-32.34,10.51-41.76,11.89-6.59,24.41-6.68,37.27-4.03,3.96.82,7.99,1.34,11.94,2.23.86.19,2.09,1.37,2.12,2.13.19,4.99.1,9.99.1,14.99-.31.07-.61.15-.92.22Z"/>
    <path class="cls-2" d="M462.42,238.11c2.7,7.21,5.15,13.71,7.56,20.21,11.1,30,22.12,60.03,33.35,89.98,1.64,4.36,3.22,9.22,8.76,10.82h-23.24c.47.49.94.98,1.41,1.47.75-1.56,1.85-3.05,2.15-4.68.32-1.75.3-3.78-.3-5.43-5.08-13.99-10.37-27.91-15.48-41.88-.75-2.05-1.73-2.89-3.97-2.87-9.24.11-18.49.1-27.74,0-2.05-.02-3.05.64-3.75,2.6-5,14.02-10.17,27.98-15.15,42-1.48,4.16-.45,6.41,3.69,8.8h-17.52c5.2-2.76,7.34-7.45,9.18-12.35,13.02-34.79,26.03-69.59,39.06-104.38.46-1.22,1.09-2.37,1.98-4.3ZM473.54,300.02c-4.8-13.05-9.44-25.66-14.08-38.26-.47,0-.94.01-1.41.02-4.64,12.62-9.28,25.23-14.07,38.24h29.56Z"/>
  </g>
</svg>