<?xml version="1.0" encoding="UTF-8"?>
<svg id="Layer_1" xmlns="http://www.w3.org/2000/svg" viewBox="0 0 841.89 595.28">
  <defs>
    <style>
      .cls-1 {
        fill-rule: evenodd;
      }
    </style>
  </defs>
  <g>
    <path class="cls-1" d="M345.88,205.01c28.02-6.35,42.93,2.58,30.68,16.92-15.51,18.33-56.62,19.74-78.73,13.86-3.37-.94-6.94-2.12-10.72-3.53,18.05-13.13,36.86-22.43,58.77-27.26M356.91,296.94c.22,2.82-2.99,7.52-10.23,12.45-6.52,4.47-16.05,7.76-19.74,5.17,1.53-2.11,3.13-4.46,4.79-6.11,13.15-13.63,24.71-16.22,25.17-11.52ZM398.19,291.53c7.45-8.23,15.26-16.69,23.43-25.38,19.81-21.15,44.24-40.89,50.28-35.96,3.32,2.82-7.64,16.69-24.64,29.14-29.56,21.62-34.25,23.03-49.06,32.2ZM508.62,280.02l1.79-1.17c3.53-3.06,4.81-7.05,3.31-9.4l-.83-.94c-2.29-1.64-7.53-1.17-11.47,1.41-.36.24-1.23,1.18-1.58,1.41-3.53,3.06-4.89,7.29-3.39,9.64l.83.94c2.29,1.65,7.4.71,11.33-1.88ZM598.89,322.89c2.65,6.44-1.42,14.68-9.02,17.76-6.48,2.58-16.5,2.11-15.68-3.06.75-6.75,19.79-13.41,24.7-14.7ZM259.11,193.03c2.83-4.01,9.08-7.78,14.08-8.1,7.16-.56,11.74.36,17.72,4.19,4.9,3.24,7.17,6.51,10.01,3.32,3.67-4.32,1.95-10.57-5.55-13.26-6.82-2.32-12.83-2.2-19.81-.65-3.95.92-10.24,3.7-13.64,5.8-17.6,10.81-13.37,30.08,5.74,43.48-16.78,11.75-31.06,25.38-39.65,37.13-35.32,49.12-28.34,87.89,22.77,84.37,19.14-1.28,37.07-10.2,52.47-21.39-2.7,8.56-.84,14.78,5.79,17.67,15.81,6.69,33.34-6.66,45.33-17.93-6.09,13.37-2.01,19.28,6.69,21.22,11.75,2.57,28.08-10.01,41.31-22.76-2.3,7.85-1.41,16.23,6.82,19.71,10.98,4.46,22.31,0,34.07-8.46,3.16-2.27,6.86-5.36,10.57-8.68-1.56,2.65-2.55,4.99-2.62,6.8-.38,10.81,9.98,14.57,23.37,6.34,4.71-2.84,10.42-7.71,15.99-12.94-1.62,2.7-2.85,5.22-3.44,7.3-3.23,11.75,6.93,15.28,19.66,10.81,6.05-2.11,14.74-8.93,23.38-16.45-.96,2.12-1.93,4.23-1.97,6.11-.74,11.04,13.35,15.51,26.19,6.35,14.99-10.59,46.93-43.9,46.33-43.01-3.01,4.52-6.21,12.58-3.4,19.67-7.85,2.28-26.9,10.38-29.64,18.87-2.12,6.58,1.6,10.81,9.54,12.46,13.22,2.6,33.18-4.84,37.61-18.56,1.09-3.9.33-8.3-.59-11.45,6.7.35,10.69,2.53,13.91,8.87,1.66,3.39,1.84,5.96,4.48,5.1,3.47-1.22,4.58-5.26,1.29-9.19-3.03-3.51-6.42-5.39-10.82-6.79-2.87-.88-6.88-1.19-10.07-1.35-2.21-5.7-4.46-11.17.14-18.56,6.29-9.87,15.37-15.27,16.01-15.51,2.28-.94,4.22-2.58,4.24-3.53.1-1.17-1.24-1.41-2.36-1.41-.57,0-1.21.24-1.77.24-1.21.23-10.8,2.82-16.17,6.35-17.74,11.39-37.09,36.44-55.48,51.23-9.48,7.52-20.47,12.69-13.53-.94,1.78-3.76,12.25-17.86,26.23-30.55,5.11-4.47,8.32-9.17,4.36-11.75-5.77-3.99-11.78-.23-16.25,4-7.71,7.28-14.43,14.1-19.51,20.21-19.83,18.57-31.25,27.73-37.14,25.85-5.4-1.64,6.27-18.56,19.17-30.55,12.03-11.05,17.47-17.39,11.81-19.98-7.13-3.29-12.52,1.17-26.25,15.75-1.16,1.2-2.43,2.59-3.74,4.09-7.18,7-19.16,18.75-26.53,24.11-9.97,7.28-17.95,7.52-10.31-3.06,2.62-3.76,11.4-14.34,23.96-27.03,4.62-4.7,13.71-13.63,6.32-14.33-10.14-.94-15.55,4.46-19.53,8.93-2.72,3-7.11,7.63-11.48,12.63-6.31,6.25-16.31,15.48-24.72,21.68-8.18,6.11-16.49,8.23-20.19,6.58-11.32-5.17-.17-23.97,11.12-33.61,8.99-7.76,21.32-16.22,25.99-13.16,2.78,1.88-3.18,6.35-8.12,9.4-4.22,2.58-3.94,6.11-.22,6.81,2.95.47,7.8-1.41,10.63-4.93,4.36-5.64,4.31-9.87,2.89-12.45-1.84-3.06-4.34-4.93-8.21-5.17-14.17-.71-36.52,10.81-47.7,27.97l-.25.39c-14.63,14.5-35.49,32.63-40.27,25.46-2.25-3.53,2.37-14.34,11.46-26.79,3.57-4.94,7.93-10.58,13.21-16.45,15.92-8.22,32.17-18.33,55.11-34.31,21.79-15.04,34.87-31.96,30.91-38.07-3.76-5.88-19.48-9.64-53.08,19.27-24.25,20.92-44.97,44.89-59.75,65.33-1.78,2.47-3.34,4.78-4.71,6.96-8.89,8.56-27.89,26.45-39.33,24.53-8.02-1.41-2.92-14.57,4.51-25.38,3.22,1.41,10.48,1.65,22.84-5.17,9.29-5.17,15.54-13.16,15.08-17.86-.46-4.7-9.22-7.29-18.38-5.17-14.69,3.53-28.13,14.57-35.69,27.5-1.14,1.9-2.13,3.72-2.96,5.47-16.54,12.82-34.26,21.66-53.86,22.7-46.57,2.58-24.01-50.76-1.89-77.32,10.23-12.46,21.26-23.03,32.97-32.2,3.29,1.18,6.66,2.11,10.31,3.06,32.08,8.22,72.56,3.53,89.09-16.22,9.28-11.28,6.73-29.61-35.71-25.85-25.21,1.87-52.72,13.85-73.52,27.5-12.72-8.7-21.79-19.98-13.63-31.26Z"/>
    <path d="M582.76,352.53c-1.99,0-3.93-.17-5.75-.53-4.9-1.01-8.21-2.95-9.85-5.75-1.31-2.25-1.47-4.96-.48-8.04,2.74-8.5,20.52-16.46,29.29-19.23-1.43-4.53-.75-9.42.86-13.68-9.36,9.42-30.43,30.46-41.85,38.54-7.49,5.33-16.21,6.64-22.2,3.3-3.88-2.17-5.93-6.01-5.62-10.57.02-.8.18-1.62.44-2.46-9.2,7.78-15.76,12.22-20.47,13.86-8.15,2.85-15.24,2.52-18.93-.93-1.86-1.74-3.73-5.08-2.07-11.14.2-.71.48-1.49.83-2.31-4.69,4.16-8.59,7.16-11.85,9.12-7.81,4.81-15.09,5.93-19.97,3.08-3.37-1.96-5.14-5.64-4.97-10.37.03-.79.21-1.67.54-2.65-2.57,2.18-4.87,4-6.85,5.42-13.82,9.95-24.96,12.69-35.06,8.59-6.68-2.83-9.62-9.25-8.23-17.54-16.92,15.77-30.27,22.69-39.74,20.64-4.63-1.03-7.76-3.12-9.3-6.21-1.56-3.13-1.5-7.15.19-12.21-17.13,15.15-31.25,20.09-43.1,15.07-6.26-2.74-8.73-8.39-7.12-16.11-17.32,12.13-34.35,18.82-50.67,19.92-20.9,1.38-35.44-4.06-42.04-15.9-8.89-15.97-2.2-41.53,18.36-70.11,8.77-12,22.82-25.25,38.7-36.53-10.55-7.77-16.41-17.34-16.14-26.44.22-7.18,4.24-13.38,11.64-17.92,3.34-2.07,9.74-4.95,13.94-5.93,7.8-1.74,13.89-1.55,20.38.67,4.14,1.49,6.99,4.18,7.85,7.39.69,2.59.02,5.33-1.83,7.52-2.84,3.2-5.44,1.25-8.46-1.03-.86-.65-1.82-1.37-2.91-2.09-5.58-3.57-9.91-4.59-17.07-4.02-4.49.28-10.58,3.79-13.31,7.66h0c-2.43,3.37-3.35,6.92-2.72,10.54,1.05,6.01,6.41,12.53,15.52,18.87,24.06-15.67,50.79-25.6,73.43-27.28,27.19-2.42,36.67,4.17,39.8,10.11,2.72,5.16,1.52,11.68-3.21,17.44-17.77,21.21-59.7,24.36-90.15,16.56-3.16-.82-6.53-1.73-9.86-2.89-12.06,9.49-22.65,19.86-32.36,31.68-14.54,17.45-31.27,49.43-22.99,65.92,3.59,7.13,11.66,10.46,24.01,9.71,17.48-.93,34.85-8.23,53.09-22.34.8-1.67,1.75-3.42,2.9-5.33,8.07-13.8,22-24.52,36.34-27.97,6.52-1.51,13.32-.75,16.98,1.88,1.59,1.14,2.52,2.6,2.68,4.2.53,5.41-6.32,13.7-15.61,18.87-12.89,7.1-19.96,6.48-22.95,5.52-6.05,8.99-9.07,17.39-7.54,21.05.47,1.14,1.39,1.8,2.8,2.05,11.26,1.89,31-17.1,38.43-24.25,1.23-2.02,2.83-4.38,4.59-6.82,17.13-23.7,38.41-46.96,59.92-65.51,26.21-22.54,40.67-24.37,46.92-23.44,3.49.52,6.23,2.07,7.72,4.4,4.5,6.95-9.2,24.3-31.2,39.49-22.7,15.82-39.18,26.08-55.05,34.29-4.42,4.92-8.68,10.23-13.02,16.22-9.74,13.34-13.12,22.99-11.43,25.62.44.67,1.07,1.02,1.98,1.11,5.6.57,18.96-9.2,36.69-26.75l.11-.21c11.31-17.36,33.21-28.47,47.35-28.47.43,0,.85,0,1.27.03,3.94.24,6.9,2.1,9.05,5.68,1.19,2.15,2.36,6.74-2.95,13.62-3.21,3.99-8.41,5.86-11.62,5.32-2.03-.39-3.4-1.55-3.68-3.12-.36-1.94.96-4.04,3.53-5.61,6.12-3.78,8.31-6.29,8.33-7.29,0-.08,0-.19-.25-.37-3.23-2.12-13.18,3.13-24.73,13.09-8.21,7.01-16.43,19.16-15.39,26.59.34,2.48,1.66,4.2,4.03,5.28,3.17,1.4,10.97-.37,19.14-6.48,8.08-5.95,18.01-15.04,24.61-21.57,2.94-3.37,5.97-6.66,8.41-9.29,1.14-1.24,2.17-2.35,3.03-3.3,4.44-4.98,10.01-10.24,20.4-9.27,1.92.18,3.12.9,3.56,2.13,1.13,3.1-3.29,7.94-8.74,13.47l-.49.5c-12.59,12.72-21.31,23.25-23.86,26.89-3.02,4.17-3.08,6-2.69,6.39.75.75,4.89.09,11.54-4.76,7.09-5.16,18.78-16.57,25.76-23.38l.65-.64c1.27-1.46,2.55-2.85,3.72-4.07,13.64-14.47,19.54-19.59,27.44-15.97,1.64.75,2.58,1.84,2.8,3.23.61,3.88-4.57,9.48-14.34,18.45-12.15,11.29-20.95,24.64-20.14,28.17.08.35.24.52.57.62,5.46,1.71,17.39-8.07,36.12-25.62,4.59-5.54,11-12.18,19.5-20.21,6.58-6.22,12.49-7.59,17.56-4.09,1.36.89,2.11,2.07,2.21,3.5.19,2.64-1.99,5.97-6.48,9.89-14.4,13.08-24.41,26.91-25.97,30.21-2.97,5.83-1.9,6.79-1.85,6.83.97.76,5.99-.97,13.79-7.15,7.96-6.4,16.26-14.9,24.29-23.12,10.41-10.66,21.17-21.68,31.28-28.17,5.62-3.7,15.41-6.28,16.53-6.49.41-.02.65-.07.88-.12,1.82-.35,3.25,0,3.96.78.4.43.58.99.53,1.62-.04,1.75-2.94,3.6-4.88,4.4-1.03.45-9.67,5.9-15.54,15.11-4.16,6.68-2.42,11.5-.29,17.01,3.1.17,6.83.5,9.64,1.36,5,1.58,8.37,3.71,11.31,7.1,1.91,2.29,2.63,4.76,2.02,6.98-.5,1.8-1.86,3.21-3.75,3.87-2.96.94-3.92-1.31-4.83-3.53-.26-.63-.56-1.35-.92-2.09-2.67-5.27-5.9-7.59-11.6-8.18.74,3.04,1.22,6.96.21,10.58-3.94,12.22-19.85,19.84-33.06,19.84ZM600.81,298.87c.2,0,.35.13.57.3l.73.6-.53.8c-3.25,4.88-5.82,12.36-3.3,18.72l.42,1.06-1.1.32c-8.88,2.58-26.48,10.56-28.94,18.18-.81,2.5-.71,4.63.3,6.36,1.31,2.24,4.23,3.89,8.46,4.76,13.05,2.56,32.2-4.83,36.4-17.87,1.04-3.72.25-7.95-.6-10.84l-.41-1.4,1.46.07c7.39.39,11.54,3.04,14.79,9.44.39.8.71,1.55.98,2.22,1.06,2.55,1.25,2.7,2.25,2.35,1.23-.43,2.09-1.3,2.41-2.45.42-1.52-.17-3.37-1.59-5.08-2.65-3.08-5.75-5.02-10.34-6.47-2.82-.86-6.95-1.15-9.81-1.3l-.67-.03-.36-.93c-2.19-5.65-4.46-11.49.34-19.19,6.41-10.06,15.69-15.62,16.53-15.93,2.09-.86,3.46-2.18,3.57-2.62.01-.06-.24-.3-1.33-.3-.22,0-.45.05-.69.1-.37.07-.73.14-1.08.14-.72.16-10.28,2.68-15.59,6.17-9.92,6.37-20.6,17.31-30.93,27.88-8.07,8.26-16.41,16.81-24.48,23.29-3.84,3.04-13.1,9.81-16.4,7.13-1.67-1.36-1.26-4.34,1.3-9.36,1.96-4.15,12.78-18.43,26.45-30.85,3.87-3.38,5.92-6.28,5.78-8.19-.05-.76-.47-1.39-1.29-1.92-4.23-2.91-9.12-1.65-14.97,3.88-8.45,7.97-14.8,14.55-19.42,20.12-20.29,19.03-31.75,28.33-38.25,26.18-1.02-.32-1.73-1.07-1.97-2.13-1.23-5.37,9.74-19.93,20.75-30.17,7.4-6.8,14.18-13.51,13.7-16.59-.07-.43-.31-1.08-1.61-1.67-6.34-2.91-11.29.89-25.07,15.52-1.16,1.2-2.41,2.57-3.71,4.06l-.71.7c-7.48,7.3-18.78,18.32-25.99,23.56-5,3.66-11.73,7.06-14.23,4.56-1.58-1.57-.75-4.62,2.46-9.06,2.57-3.69,11.4-14.34,24.07-27.15l.49-.5c2.71-2.75,9.05-9.18,8.27-11.3-.19-.54-1.22-.71-1.81-.77-9.42-.88-14.36,3.77-18.66,8.59-.87.96-1.9,2.08-3.05,3.32-2.43,2.63-5.45,5.9-8.42,9.31-6.7,6.64-16.72,15.81-24.89,21.83-7.86,5.86-16.8,8.65-21.23,6.7-2.99-1.36-4.79-3.74-5.23-6.88-1.15-8.23,7.28-20.94,16.1-28.46,6.15-5.3,21.16-17.22,27.23-13.24,1,.67,1.19,1.53,1.18,2.13-.02.82-.07,3.3-9.32,9.02-2.13,1.3-2.72,2.68-2.57,3.46.13.7.86,1.23,2,1.44,2.53.38,7.02-1.32,9.63-4.56,4.58-5.93,3.71-9.62,2.79-11.3-1.8-3-4.08-4.44-7.37-4.64-.39-.02-.8-.03-1.21-.03-13.56,0-34.63,10.75-45.56,27.53l-.25.38c-12.84,12.77-29.54,27.56-37.86,27.56-.22,0-.43-.02-.64-.03-1.53-.15-2.7-.84-3.51-2.05-3.08-4.82,4.27-18.08,11.49-27.98,4.43-6.12,8.77-11.52,13.28-16.53l.3-.23c15.83-8.18,32.28-18.42,54.99-34.24,22.14-15.29,33.92-31.59,30.63-36.66-.67-1.05-2.37-2.89-6.27-3.46-5.94-.92-19.69.95-45.26,22.95-21.39,18.45-42.55,41.59-59.59,65.16-1.73,2.41-3.3,4.73-4.67,6.9-13.17,12.71-29.55,26.88-40.38,25-2.11-.37-3.62-1.51-4.37-3.3-2.26-5.39,2.75-15.78,8.2-23.7l.49-.71.79.35c1.65.72,8.11,2.48,21.92-5.13,9.19-5.11,14.94-12.84,14.55-16.85-.1-1-.71-1.92-1.82-2.71-3.2-2.31-9.36-2.91-15.29-1.55-13.8,3.32-27.22,13.66-35.03,27.01-1.17,1.95-2.12,3.71-2.92,5.39l-.3.37c-18.66,14.47-36.47,21.96-54.44,22.92-13.3.68-22-2.91-25.98-10.85-8.71-17.32,8.35-50.29,23.24-68.17,9.93-12.09,20.76-22.67,33.13-32.35l.45-.35.54.19c3.42,1.22,6.93,2.18,10.22,3.02,30.24,7.75,71.44,3.93,88.03-15.87,4.18-5.09,5.3-10.75,2.97-15.15-2.33-4.41-10.33-11.44-37.8-9.01-22.17,1.64-49.47,11.86-73.05,27.33l-.58.38-.57-.39c-10.08-6.88-15.78-13.82-16.97-20.62-.73-4.19.3-8.26,3.08-12.1,3.09-4.38,9.75-8.21,14.85-8.53,7.58-.6,12.39.54,18.34,4.35,1.14.75,2.13,1.5,3.03,2.18,3.36,2.53,4.21,2.93,5.65,1.33,1.41-1.67,1.92-3.67,1.39-5.62-.68-2.55-3.06-4.72-6.53-5.97-6.08-2.06-11.83-2.25-19.23-.61-3.94.92-10.18,3.73-13.32,5.67-6.77,4.16-10.45,9.76-10.65,16.21-.26,8.72,5.73,18.02,16.44,25.53l1.21.85-1.21.85c-16.18,11.33-30.55,24.78-39.4,36.89-20.07,27.9-26.71,52.65-18.23,67.89,6.18,11.09,20.08,16.21,40.08,14.83,16.65-1.11,34.12-8.25,51.93-21.2l2.55-1.85-.95,3.01c-2.6,8.24-.85,13.76,5.21,16.4,11.77,4.94,26.22-.84,44.2-17.74l3.84-3.61-2.19,4.8c-2.92,6.41-3.57,11.35-1.92,14.67,1.26,2.53,3.84,4.2,7.89,5.11,9.18,2,22.78-5.55,40.36-22.49l2.82-2.72-1.1,3.76c-1.25,4.23-3.12,14.5,6.23,18.46,9.35,3.82,19.87,1.14,33.06-8.35,2.86-2.05,6.38-4.94,10.49-8.61l5-4.47-3.41,5.77c-1.58,2.68-2.41,4.81-2.48,6.31-.14,3.91,1.26,6.93,3.94,8.49,4.13,2.41,10.81,1.26,17.84-3.07,4.08-2.46,9.26-6.66,15.82-12.81l5.4-5.07-3.8,6.36c-1.68,2.8-2.8,5.17-3.33,7.05-1.1,3.99-.58,7.13,1.49,9.06,3.07,2.86,9.53,3.04,16.83.49,6.55-2.28,16.29-10.37,23.04-16.26l3.62-3.15-1.99,4.37c-.91,1.99-1.84,4.04-1.88,5.71-.26,3.81,1.37,6.87,4.57,8.65,5.3,2.98,13.14,1.71,19.98-3.17,11.85-8.38,34.42-31.09,42.91-39.64,1.59-1.6,2.54-2.56,3.16-3.08,0,0,0,0,0-.01h0c.47-.4.74-.55.96-.55ZM259.11,193.03h.02-.02ZM581.66,343.21c-2.8,0-5.38-.54-6.95-1.8-1.26-1.01-1.8-2.39-1.55-3.98.93-8.43,25.22-15.48,25.46-15.54l.88-.23.34.84c1.26,3.08,1.17,6.63-.25,10.02-1.71,4.07-5.11,7.38-9.35,9.1-2.51,1-5.68,1.59-8.6,1.59ZM598.24,324.15c-7.25,2.08-22.43,8.27-23.02,13.56-.14.89.11,1.54.79,2.09,2.29,1.83,8.71,1.79,13.47-.11,3.72-1.51,6.71-4.42,8.21-7.98,1.08-2.56,1.26-5.2.55-7.56ZM330.59,316.53c-1.66,0-3.12-.33-4.24-1.12l-.86-.6,1.28-1.78c1.36-1.89,2.76-3.84,4.25-5.31,10.55-10.93,20.39-15.15,24.67-13.69,1.33.46,2.13,1.46,2.26,2.81v.02c.28,3.64-3.71,8.64-10.68,13.39-4.49,3.08-11.53,6.28-16.68,6.28ZM328.51,314.17c3.55,1.1,11.26-1.3,17.59-5.63,6.99-4.77,9.95-9.21,9.78-11.51-.06-.52-.32-.84-.88-1.04-3.02-1.01-12.04,2.33-22.51,13.19-1.36,1.34-2.69,3.19-3.98,4.99ZM392.48,296.29l4.94-5.45c7.52-8.31,15.41-16.85,23.45-25.39,16.7-17.83,44.23-42.17,51.69-36.05.48.41,1.02,1.14.97,2.44-.2,5.5-11.47,17.95-25.66,28.35-22.39,16.38-30.37,21.08-39.61,26.52-2.91,1.72-5.92,3.49-9.53,5.72l-6.26,3.87ZM469.37,230.43c-7.18,0-27.32,15.43-46.99,36.43-6.33,6.73-12.56,13.46-18.6,20.07,1.18-.7,2.31-1.37,3.43-2.03,9.19-5.42,17.13-10.1,39.44-26.41,14.65-10.73,24.65-22.49,24.81-26.74.02-.56-.17-.72-.23-.77-.45-.37-1.08-.55-1.85-.55ZM500.41,283.75c-1.45,0-2.75-.31-3.73-1.01l-1-1.1c-1.94-3.02-.4-7.74,3.49-11.11.26-.19.51-.44.76-.68.35-.34.71-.67.92-.81,4.21-2.76,9.88-3.38,12.65-1.39l1,1.1c1.93,3,.45,7.52-3.41,10.87l-1.9,1.26c-2.57,1.69-5.95,2.87-8.78,2.87ZM509.3,268.55c-2.15,0-4.95.69-7.3,2.23-.14.1-.38.34-.63.58-.37.35-.74.69-.95.83-3.27,2.84-4.18,6.5-3.08,8.21l.73.81c1.7,1.18,6.36.32,9.98-2.06h0l1.79-1.17c2.87-2.5,4.24-6.04,3-7.97l-.73-.82c-.6-.42-1.6-.64-2.82-.64ZM324.35,239.93c-9.91,0-19.36-1.15-26.79-3.12-3.37-.94-7-2.14-10.81-3.56l-1.81-.68,1.56-1.14c19.35-14.08,38.15-22.8,59.16-27.43h0c17.6-3.98,31.04-2.28,35.11,4.45,2.32,3.84,1.11,8.87-3.4,14.16-10.58,12.5-32.74,17.32-53.01,17.32ZM289.31,231.97c3.09,1.11,6.04,2.06,8.8,2.83,22.09,5.87,62.45,4.43,77.66-13.53,2.75-3.23,5.54-7.88,3.21-11.74-2.89-4.8-14.18-7.74-32.87-3.5h0c-20.14,4.44-38.23,12.7-56.79,25.94ZM345.88,205.02h.02-.02Z"/>
  </g>
  <g>
    <path d="M344.91,390.77h2.68l5.71,21.85,4.93-21.85h4.07l-6.81,27.87h-3.99l-5.14-19.48-5.37,19.48h-3.99l-6.8-27.87h4.07l4.92,21.85,5.71-21.85Z"/>
    <path d="M380.96,417.65c-1.48-.85-2.63-2.05-3.44-3.6-.81-1.55-1.22-3.35-1.22-5.4v-7.9c0-2.04.41-3.84,1.22-5.39.81-1.56,1.96-2.75,3.44-3.6,1.48-.85,3.19-1.27,5.14-1.27s3.65.42,5.14,1.27c1.48.85,2.63,2.05,3.44,3.6.81,1.55,1.22,3.35,1.22,5.39v7.9c0,2.05-.41,3.85-1.22,5.4-.81,1.55-1.96,2.75-3.44,3.6-1.48.85-3.2,1.27-5.14,1.27s-3.65-.42-5.14-1.27ZM389.13,414.3c.87-.52,1.55-1.25,2.03-2.2s.72-2.05.72-3.3v-8.17c0-1.25-.24-2.36-.72-3.31s-1.16-1.68-2.03-2.2c-.87-.52-1.89-.78-3.04-.78s-2.16.26-3.04.78c-.87.52-1.55,1.25-2.03,2.2s-.72,2.06-.72,3.31v8.17c0,1.25.24,2.35.72,3.3s1.16,1.69,2.03,2.2c.87.52,1.89.78,3.04.78s2.16-.26,3.04-.78Z"/>
    <path d="M432.8,390.77h3.66v27.87h-3.82v-20.88l.19,1.23-6.86,15.78h-2.72l-6.86-15.39.19-1.61v20.88h-3.82v-27.87h3.66l8.18,18.4,8.19-18.4Z"/>
    <path d="M461.5,390.77h3.34l10.28,27.87h-4.22l-7.73-22.49-7.73,22.49h-4.22l10.28-27.87ZM455.96,408.8h14.67v3.72h-14.67v-3.72Z"/>
    <path d="M489.87,390.77h3.55l13.63,21.55-.46.5v-22.05h3.87v27.86h-3.58l-13.59-21.22.46-.5v21.72h-3.87v-27.86Z"/>
  </g>
</svg>