<?xml version="1.0" encoding="UTF-8"?>
<svg id="Layer_1" xmlns="http://www.w3.org/2000/svg" viewBox="0 0 841.89 595.28">
  <defs>
    <style>
      .cls-1 {
        fill: #231f20;
      }
    </style>
  </defs>
  <g>
    <path class="cls-1" d="M781.42,242.25h1.43v-2.24h-12.3v2.24h1.43c.29,0,.52.23.52.52v57.42c0,.29-.23.52-.52.52h-1.43v2.24h9.38s2.92,0,2.92,0v-2.24h-1.43c-.29,0-.52-.23-.52-.52v-57.42c0-.29.23-.52.52-.52Z"/>
    <path class="cls-1" d="M574.09,242.25h1.43c.29,0,.52.23.52.52v57.42c0,.29-.23.52-.52.52h-1.43v2.24h9.38s2.92,0,2.92,0v-2.24h-1.43c-.29,0-.51-.23-.51-.52v-57.42c0-.29.23-.52.51-.52h1.43v-2.24h-12.3v2.24Z"/>
    <path class="cls-1" d="M180.83,242.25h1.43c.29,0,.52.23.52.52v57.42c0,.29-.23.52-.52.52h-1.43v2.24h9.38s2.92,0,2.92,0v-2.24h-1.43c-.29,0-.51-.23-.51-.52v-57.42c0-.29.23-.52.51-.52h1.43v-2.24h-12.3v2.24Z"/>
    <path class="cls-1" d="M248.91,266.25c-10.09-4.18-13.9-7.8-13.6-12.9.55-8.29,8.18-9.18,11.43-9.18.33,0,.66,0,1,.02,9.53.43,15,5.25,15,13.22v4.03h2.7v-21.43h-2.7v2.13c0,.92.01,1.68.03,2.3.01.77.03,1.5-.01,1.84-.37-.05-1.18-.51-1.96-.95-2.38-1.36-6.37-3.65-12.97-3.92-.22,0-.43-.01-.66-.01-6.57,0-16.52,3.76-18.09,12.11-1.61,8.49,2.69,13.91,15.35,19.32,1.32.57,2.66,1.11,3.99,1.65,8.34,3.37,15.55,6.29,14.9,14.04-.58,6.91-5.86,10.88-14.47,10.88-.54,0-1.1-.02-1.66-.05-11.15-.74-19.89-6.8-19.89-13.8v-4.03h-2.7v21.43h2.7v-2.92c0-1.88,0-3.66.27-3.96.55,0,1.83.64,3.19,1.32,3.52,1.77,9.42,4.73,17.6,4.73,10.91,0,19.52-6.14,20.94-14.93,1.84-11.23-6.55-15.28-20.4-20.95Z"/>
    <path class="cls-1" d="M521.96,266.25c-10.09-4.18-13.9-7.8-13.6-12.9.55-8.29,8.18-9.18,11.43-9.18.33,0,.66,0,1,.02,9.53.43,15,5.25,15,13.22v4.03h2.7v-21.43h-2.7v2.13c0,.92.01,1.68.03,2.3.01.77.03,1.5-.01,1.84-.37-.05-1.18-.51-1.96-.95-2.38-1.36-6.37-3.65-12.97-3.92-.22,0-.43-.01-.66-.01-6.57,0-16.52,3.76-18.09,12.11-1.61,8.49,2.69,13.91,15.35,19.32,1.32.57,2.66,1.11,3.99,1.65,8.34,3.37,15.55,6.29,14.9,14.04-.58,6.91-5.86,10.88-14.47,10.88-.54,0-1.1-.02-1.66-.05-11.15-.74-19.89-6.8-19.89-13.8v-4.03h-2.7v21.43h2.7v-2.91c0-1.89,0-3.67.28-3.97.55,0,1.83.64,3.19,1.32,3.52,1.77,9.42,4.73,17.6,4.73,10.91,0,19.52-6.14,20.94-14.93,1.84-11.23-6.55-15.28-20.4-20.95Z"/>
    <path class="cls-1" d="M147.06,300.3l-19.68-58.05h1.63v-2.24h-12.3v2.24h1.23s-13.53,54.38-13.53,54.38l-18.44-54.38h1.63v-2.24h-12.3v2.25h1.23c-1.59,6.41-13.16,53.11-13.51,54.28-.75,2.53-2.34,4.13-4.15,4.17l-.83.03-.13.89v1.34h12.31v-2.24h-.98c-1.37,0-2.51-.46-3.15-1.27-.59-.75-.74-1.77-.44-3.02l12.77-51.33,18.85,55.62h-1.63v2.24h12.3v-2.24h-.98c-.39,0-.78-.14-.88-.26-.02-.03,0-.14,0-.16.51-2.05,13.73-55.2,13.73-55.2l18.85,55.62h-1.63v2.24h12.3v-2.24h-1.68c-.28,0-.52-.17-.61-.41Z"/>
    <path class="cls-1" d="M377.46,242.25h1.43c.29,0,.52.23.52.52v57.42c0,.29-.23.52-.52.52h-1.43v2.24h9.38s2.92,0,2.92,0v-2.24h-1.43c-.29,0-.52-.23-.52-.52v-57.42c0-.29.23-.52.52-.52h1.43v-2.24h-12.3v2.24Z"/>
    <path class="cls-1" d="M325.33,266.25c-10.09-4.18-13.9-7.8-13.6-12.9.55-8.29,8.18-9.18,11.43-9.18.33,0,.66,0,1,.02,9.53.43,15,5.25,15,13.22v4.03h2.7v-21.43h-2.7v2.13c0,.92.01,1.68.03,2.3.01.77.03,1.5-.01,1.84-.37-.05-1.18-.51-1.96-.95-2.38-1.36-6.37-3.65-12.97-3.92-.22,0-.43-.01-.66-.01-6.57,0-16.52,3.76-18.09,12.11-1.61,8.49,2.69,13.91,15.35,19.32,1.32.57,2.66,1.11,3.99,1.65,8.34,3.37,15.55,6.29,14.9,14.04-.58,6.91-5.86,10.88-14.47,10.88-.54,0-1.1-.02-1.66-.05-11.15-.74-19.89-6.8-19.89-13.8v-4.03h-2.7v21.43h2.7v-2.92c0-1.88,0-3.66.27-3.96.55,0,1.83.64,3.19,1.32,3.52,1.77,9.42,4.73,17.6,4.73,10.91,0,19.52-6.14,20.94-14.93,1.84-11.23-6.55-15.28-20.4-20.95Z"/>
    <path class="cls-1" d="M445.54,266.25c-10.09-4.18-13.9-7.8-13.6-12.9.55-8.29,8.18-9.18,11.43-9.18.33,0,.66,0,1,.02,9.53.43,15,5.25,15,13.22v4.03h2.7v-21.43h-2.7v2.13c0,.92.01,1.68.03,2.3.01.77.03,1.5-.01,1.84-.37-.05-1.18-.51-1.96-.95-2.38-1.36-6.37-3.65-12.97-3.92-.22,0-.43-.01-.66-.01-6.57,0-16.52,3.76-18.09,12.11-1.61,8.49,2.69,13.91,15.35,19.32,1.32.57,2.66,1.11,3.99,1.65,8.34,3.37,15.55,6.29,14.9,14.04-.58,6.91-5.86,10.88-14.47,10.88-.54,0-1.1-.02-1.66-.05-11.15-.74-19.89-6.8-19.89-13.8v-4.03h-2.7v21.43h2.7v-2.92c0-1.88,0-3.66.27-3.96.55,0,1.83.64,3.19,1.32,3.52,1.77,9.42,4.73,17.6,4.73,10.91,0,19.52-6.14,20.94-14.93,1.84-11.23-6.55-15.28-20.4-20.95Z"/>
    <path class="cls-1" d="M637.14,240.01h-19.27v2.24h1.43c.29,0,.52.23.52.52v57.42c0,.29-.23.52-.52.52h-1.43v2.24h9.38s2.92,0,2.92,0v-2.24h-1.43c-.29,0-.52-.23-.52-.52v-21.75h8.91c21.15,0,25.59-10.45,25.59-19.21s-4.44-19.21-25.59-19.21ZM636.44,276.13h-8.22s0-33.83,0-33.83h8.22c12.38.23,16.98,4.81,16.98,16.92s-4.6,16.68-16.99,16.91Z"/>
    <path class="cls-1" d="M713.48,240.01h-19.27v2.24h1.43c.29,0,.52.23.52.52v57.42c0,.29-.23.52-.52.52h-1.43v2.24h9.38s2.92,0,2.92,0v-2.24h-1.43c-.29,0-.52-.23-.52-.52v-21.75h8.91c21.15,0,25.59-10.45,25.59-19.21s-4.44-19.21-25.59-19.21ZM712.79,276.13h-8.22s0-33.83,0-33.83h8.22c12.38.23,16.98,4.81,16.98,16.92s-4.6,16.68-16.99,16.91Z"/>
  </g>
  <g>
    <polygon class="cls-1" points="310.47 334.44 307.66 334.44 307.66 350.16 318.66 350.16 318.66 347.47 310.47 347.47 310.47 334.44"/>
    <path class="cls-1" d="M357.25,334.44l-7.12,15.72h2.96l1.71-3.82h7.11l1.69,3.82h3.04l-7.12-15.72h-2.28ZM355.97,343.69l2.4-5.34,2.38,5.34h-4.78Z"/>
    <path class="cls-1" d="M409.75,336.68c-.74-.7-1.63-1.26-2.65-1.65-1.01-.39-2.14-.59-3.34-.59h-5.64v15.72h5.64c1.21,0,2.33-.2,3.34-.6,1.02-.4,1.91-.96,2.64-1.66.74-.7,1.32-1.55,1.73-2.5.4-.95.61-2,.61-3.14s-.2-2.14-.61-3.09c-.4-.95-.98-1.79-1.73-2.49ZM408.82,344.37c-.26.63-.62,1.17-1.07,1.62-.46.45-1.03.82-1.7,1.08-.68.26-1.45.4-2.28.4h-2.82v-10.34h2.82c.84,0,1.6.14,2.28.4.67.27,1.24.64,1.7,1.1.46.46.82,1.01,1.08,1.63.26.63.38,1.31.38,2.08,0,.72-.13,1.41-.38,2.03Z"/>
    <rect class="cls-1" x="443.56" y="334.44" width="2.82" height="15.72"/>
    <polygon class="cls-1" points="480.67 343.57 488.6 343.57 488.6 340.9 480.67 340.9 480.67 337.11 489.54 337.11 489.54 334.44 477.85 334.44 477.85 350.16 489.64 350.16 489.64 347.49 480.67 347.49 480.67 343.57"/>
    <path class="cls-1" d="M531.77,342.54c-.83-.68-2.05-1.2-3.73-1.58-.75-.15-1.36-.32-1.84-.49-.44-.16-.78-.34-1.01-.52-.2-.16-.34-.33-.41-.5-.08-.19-.12-.42-.12-.72,0-.48.19-.86.6-1.19.43-.35,1.05-.53,1.85-.53.66,0,1.3.11,1.9.33.6.22,1.22.58,1.83,1.08l.46.38,1.62-2.15-.44-.35c-.77-.61-1.58-1.08-2.41-1.4-.84-.31-1.82-.47-2.92-.47-.74,0-1.43.11-2.05.32-.63.22-1.19.52-1.66.91-.48.4-.86.87-1.12,1.42-.27.55-.4,1.15-.4,1.83s.11,1.24.33,1.75c.22.51.57.96,1.03,1.35.44.36.99.67,1.65.92.62.24,1.36.45,2.2.63.71.15,1.3.32,1.76.49.42.15.74.32.96.5.19.16.33.32.4.49.08.19.12.42.12.71,0,.53-.2.94-.64,1.28-.47.37-1.12.56-1.94.56-.9,0-1.7-.15-2.38-.45-.7-.31-1.4-.78-2.09-1.41l-.44-.4-1.73,2.05.41.37c.9.81,1.86,1.43,2.86,1.82,1,.4,2.12.6,3.32.6.76,0,1.47-.1,2.12-.31.66-.21,1.24-.52,1.71-.92.48-.4.87-.89,1.14-1.46.28-.57.42-1.21.42-1.94,0-1.25-.45-2.26-1.33-2.99Z"/>
  </g>
</svg>