<?xml version="1.0" encoding="UTF-8"?>
<svg id="Layer_1" xmlns="http://www.w3.org/2000/svg" viewBox="0 0 841.89 595.28">
  <defs>
    <style>
      .cls-1 {
        fill: #231f20;
      }
    </style>
  </defs>
  <path class="cls-1" d="M648.63,324.36v-63.82c.55-.05,1.04-.14,1.53-.14,5.98.01,11.97.01,17.95.07,4.52.04,9.01.43,13.37,1.64,11.81,3.27,19.17,10.91,21.69,22.91,1.67,7.98,1.2,15.88-2.22,23.41-2.93,6.45-7.72,10.94-14.38,13.48-4.15,1.58-8.42,2.4-12.81,2.47-8.11.12-16.22.08-24.32.11-.19,0-.38-.06-.8-.12ZM659.69,264.86c-.49,2.5-.36,53.94.17,55.54,4.53-.16,9.16-.2,13.77-.51,7.31-.5,12.57-4.12,15.58-10.86.52-1.17,1.02-2.37,1.38-3.59,1.81-6.16,1.89-12.42.97-18.72-.61-4.16-1.72-8.19-3.96-11.8-3.24-5.22-7.7-8.77-13.98-9.57-2.29-.29-4.6-.55-6.91-.62-2.36-.08-4.72.09-7.02.14Z"/>
  <path class="cls-1" d="M183.49,321.81c.5.32,1.06.61,1.56,1,2.17,1.7,4.46,3.29,6.45,5.19,2.43,2.32,1.53,5.68-1.8,6.92-.39-.52-.82-1.07-1.24-1.62-2.76-3.63-6.05-6.65-10.11-8.8-.93-.49-1.81-.71-2.93-.53-5.59.9-11.25,1.06-16.58-1.02-11.55-4.51-18.8-12.73-20.65-25.23-.89-6.01-.39-11.92,1.68-17.67,3.3-9.15,14.64-19.61,28.01-19.35,3.01.06,6.09.13,9.01.76,12.65,2.74,22.1,13.51,23.53,26.46.74,6.65.06,13.1-2.77,19.22-2.72,5.86-7.18,10.12-12.6,13.48-.49.3-.98.61-1.47.92-.04.02-.04.1-.1.29ZM188.4,292.72c0-1.8.07-3.6-.02-5.4-.16-3.28-.48-6.56-1.53-9.69-2.27-6.74-6.69-11.2-13.87-12.43-1.88-.32-3.85-.26-5.77-.2-3.77.11-6.96,1.6-9.59,4.32-3.12,3.22-5.22,6.98-6.31,11.32-1.51,6-1.56,12.09-.98,18.2.38,3.99,1.27,7.88,3.2,11.43,1.87,3.45,4.32,6.4,7.88,8.24.64.33,1.5.58,2.17.44,3.78-.76,7.55-.71,11.32-.04,1.09.19,2,.04,2.94-.48,4.87-2.7,8.09-6.66,9.4-12.11,1.08-4.47,1.28-9.03,1.15-13.6Z"/>
  <path class="cls-1" d="M632.34,260.56h4.39c.44,1.31.57,61.34.13,63.78-.22.04-.46.1-.7.14-1.71.3-2.79-.44-3.83-1.82-12.81-16.93-25.67-33.81-38.53-50.7-.46-.6-.93-1.19-1.59-1.75-.34,5.83-.23,11.63-.25,17.43-.02,5.85,0,11.7,0,17.56v17.62h-4.06v-62.23c.54-.05,1.03-.14,1.52-.14,2.45-.01,4.89.08,7.33-.04,1.44-.07,2.33.39,3.2,1.56,6.19,8.38,12.46,16.7,18.71,25.04,3.97,5.3,7.94,10.61,11.91,15.91.42.56.85,1.12,1.35,1.77.63-.66.4-1.39.4-2.02.02-13.25.01-26.5.01-39.74v-2.37Z"/>
  <path class="cls-1" d="M369.15,270.36v52.47h-4.06v-62.38h2.28c2.32,0,4.64.08,6.95-.03,1.25-.06,1.97.41,2.7,1.38,10.03,13.46,20.11,26.89,30.17,40.32.65.86,1.3,1.72,2.14,2.52.38-2.46.25-4.87.27-7.28.02-2.44,0-4.89,0-7.33v-29.43h4.59v63.77c-.51.05-.94.08-1.37.14-1.27.17-2.11-.3-2.9-1.36-6.07-8.07-12.2-16.09-18.32-24.13-6.97-9.16-13.94-18.32-20.92-27.48-.34-.45-.73-.87-1.09-1.31-.15.05-.29.1-.44.15Z"/>
  <path class="cls-1" d="M212,260.56h10.75c.03.8.09,1.55.09,2.29,0,10.03-.02,20.07.01,30.1.01,4.18.22,8.36.2,12.54-.05,8.64,5.25,12.55,11.82,13.45,5.41.74,10.66.14,15.5-2.65,4.41-2.54,7.1-6.28,7.61-11.4.34-3.39.63-6.79.66-10.19.08-10.61.03-21.23.03-31.84v-2.26h4.03c.05.42.16.91.16,1.4,0,11.9.05,23.8-.04,35.7-.02,3.14-.33,6.3-.78,9.41-.82,5.71-4.08,9.92-8.78,13.02-3.66,2.41-7.78,3.67-12.13,4.13-5.23.55-10.42.34-15.45-1.34-1.52-.51-3-1.16-4.41-1.91-6.09-3.25-9.1-8.51-9.65-15.26-.15-1.85-.02-3.73.02-5.59.1-4.31.3-8.61.33-12.91.05-8.17.02-16.34.02-24.51v-2.17Z"/>
  <path class="cls-1" d="M556.81,301.8h-21.33c-2.92,7.55-5.83,15.09-8.74,22.63h-5.11c.15-1.49,23.86-59.33,26.18-63.87h3.15c8.97,21.15,17.98,42.35,27.1,63.84-2.13.17-4.02.07-5.9.08-1.93.02-3.86,0-5.94,0-3.12-7.54-6.23-15.06-9.39-22.7ZM555.06,297.47c-3.05-7.37-5.95-14.5-8.99-21.58-.13.01-.26.03-.39.04-2.87,7.11-5.73,14.22-8.68,21.53h18.05Z"/>
  <path class="cls-1" d="M319.19,260.5h38.03v4.12h-26.94v24.11h17.58v4.08c-1.92.21-3.83.07-5.73.1-1.99.02-3.99,0-5.98,0h-5.87v27.31h26.77v4.07h-37.87v-63.79Z"/>
  <path class="cls-1" d="M285.21,292.94v27.26h26.78v4.09h-37.58c-.39-1.44-.56-60.03-.19-63.6,1.35-.38,35.54-.48,38.05-.09.03.59.08,1.21.09,1.83.02.63,0,1.27,0,2.18-4.63.02-9.11,0-13.59,0-4.44,0-8.87,0-13.26,0-.49,1.48-.59,21.81-.11,24.15h17.51v4.1c-5.85.11-11.67-.02-17.7.08Z"/>
  <path class="cls-1" d="M458.39,269.77c-1.21.96-2.3,1.83-3.5,2.78-.53-.75-.96-1.37-1.41-1.98-3.08-4.15-7.16-6.03-12.35-5.71-5.82.36-9.33,7.52-5.71,12.64.88,1.24,2.01,2.38,3.23,3.28,2.49,1.82,5.1,3.47,7.69,5.14,3.3,2.12,6.71,4.07,9.94,6.3,10.14,6.97,9.03,23.14-.67,29.4-2.2,1.42-4.59,2.32-7.15,2.74-9.17,1.5-19.58-3.44-24.5-11.74.44-.51.92-1.09,1.42-1.65.47-.52.96-1.02,1.55-1.64.46.58.82,1.09,1.24,1.55,1.75,1.96,3.33,4.14,5.33,5.81,3.86,3.22,8.42,4.44,13.36,3.15,5.55-1.44,8.85-7.29,7.36-12.6-.52-1.86-1.56-3.43-3.04-4.6-2.17-1.7-4.42-3.31-6.75-4.8-2.6-1.66-5.34-3.09-7.96-4.73-1.63-1.02-3.25-2.12-4.68-3.39-5.34-4.71-7.31-10.62-5.63-17.56,1.77-7.34,8.8-12.19,16.58-11.57,1.66.13,3.32.43,4.94.81,4.75,1.1,7.93,4.28,10.73,8.34Z"/>
  <path class="cls-1" d="M517.36,320.25v4.12h-44.9v-63.74c1.75-.35,3.54-.12,5.32-.16,1.73-.04,3.47,0,5.43,0,.05.89.14,1.69.14,2.49,0,18.2,0,36.41,0,54.61v2.69h34.01Z"/>
</svg>